<svg xmlns="http://www.w3.org/2000/svg" width="6.83in" height="6.83in" viewBox="0 0 491.52 491.52"><title>fish</title><path d="M145.44,176.25c-5.19,0-9.5,7.68-9.62,17.15s4,17.16,9.18,17.16,9.5-7.68,9.62-17.16S150.63,176.25,145.44,176.25Z" transform="translate(-0.5 -0.98)" fill="#dafffa" fill-rule="evenodd"/><path d="M246.26,1C110.9,1,.5,111.38.5,246.74S110.9,492.5,246.26,492.5,492,382.1,492,246.74,381.62,1,246.26,1ZM420.09,292.6a137.58,137.58,0,0,0,12.85,25,1.36,1.36,0,0,1-.68,2,52.33,52.33,0,0,1-16.72,2.75c-2.56,0,.82.1-1.11.06-18.68-.39-35.45-10.88-47.53-27.65a99,99,0,0,1-14.37-30,1.37,1.37,0,0,0-2.5-.28c-16.28,28-35.09,51.23-55.73,68.4-13.68,11.39-28.15,20.1-43.2,25.76l13.67,33.43a3.17,3.17,0,0,1-4.14,4.14L169.8,359.05a3,3,0,0,1-.58-.32c-15.05-5.67-29.47-14.41-43-25.85l-.77-.66a1.37,1.37,0,0,1,.07-2.14c22.71-17.65,43.42-60.68,42.61-112.47a1.37,1.37,0,0,0-2.74-.12c-4.68,47.42-22.35,90-50.25,103.93a1.4,1.4,0,0,1-1.6-.27c-21.17-21.35-39.92-49.54-55.37-82.93h0l0-.08a1.37,1.37,0,0,1,1.2-1.91h.22c12.52-.53,50.77-3.56,50.77-7.09,0-6.21-38.54-7.06-50.91-7.16a1.36,1.36,0,0,1-1.25-1.91c.15-.33.31-.64.48-.94,19-39.47,42.55-71.62,69.13-93.73,13.85-11.52,28.5-20.3,43.74-26a2.77,2.77,0,0,1,.91-.62l92.19-37.71a2.79,2.79,0,0,1,3.64,3.65L253.82,99.94a148.66,148.66,0,0,1,42,25.46c20.44,17.24,39,40.62,54.85,68.82a1.37,1.37,0,0,0,2.5-.24,102.56,102.56,0,0,1,15.22-30.46c12.69-17.11,30.14-27.69,49.37-27.69a52.05,52.05,0,0,1,16.09,2.5,1.37,1.37,0,0,1,.73,2.07,140.06,140.06,0,0,0-13.28,24.84,171.41,171.41,0,0,0-12.59,63.64A169.52,169.52,0,0,0,420.09,292.6Z" transform="translate(-0.5 -0.98)" fill="#dafffa" fill-rule="evenodd"/></svg>