<svg xmlns="http://www.w3.org/2000/svg" width="10in" height="2.92in" viewBox="0 0 720 210.19"><title>sandcrab</title><path d="M720,33.26V146.58H0V26.78H.31c14.87.69,29.81.79,45.61,0,3-.13,6.12-.32,9.23-.53C146,20,109.42,7.79,397.17,5,581.47,3.28,664.87,16.83,701,26.78A142.41,142.41,0,0,1,720,33.26Z" transform="translate(0 -4.88)" fill="#e0b075"/><path d="M720,51.17v163.9H0V84.33s22-41.17,173.26-37.9S305.32,64.21,353.09,71.7s79-19.65,165.9-22.93,54.42,4.5,128.08,16.52c0,0,40.48-17,69.67-15.11A7.3,7.3,0,0,1,720,51.17Z" transform="translate(0 -4.88)" fill="#f6c785"/><path d="M491.94,89.59c-14.35,3.1-24.15,24.81-10.51,23.61A13.7,13.7,0,0,1,495.71,99Z" transform="translate(0 -4.88)" fill="#be1e2d" stroke="#be1e2d" stroke-miterlimit="10" stroke-width="1.4"/><rect x="516.83" y="65.18" width="2.25" height="5.97" rx="0.93" stroke="#000" stroke-miterlimit="10" stroke-width="1.4"/><rect x="552.42" y="65.18" width="2.25" height="5.97" rx="0.93" stroke="#000" stroke-miterlimit="10" stroke-width="1.4"/><path d="M528,77.08a11.64,11.64,0,0,0,16.47.28" transform="translate(0 -4.88)" fill="none" stroke="#000" stroke-linecap="round" stroke-miterlimit="10" stroke-width="3"/><path d="M570.51,103.1l-7.63,7c7.29,3,12,11.19,8.25,19.33C584.09,136.56,583.39,112.32,570.51,103.1Z" transform="translate(0 -4.88)" fill="#be1e2d" stroke="#be1e2d" stroke-miterlimit="10" stroke-width="1.4"/><path d="M577.81,89.59l-.17.41c.12-.38.17-.6.17-.6a30.78,30.78,0,0,0-2.61-8.77c6.66-2.71,10.45-15.85,11.66-20.82l.57-.14c9.63-3.26,11-11.34,5.44-25.32s-27.81-13.51-27.81-13.51l4.82,10.72c3,5.15,3.2,7.44,2.74,9.39l-.18-.42s-6.78-5.19-15.38-3.63c-8.19,1.47,1,26.7,20.49,23.46-3.12,7.81-7,10.23-8.53,10.92-6.23-6.75-16.82-12.79-34.79-12.79-15.62,0-25.37,4.57-31.46,10.2-1.66-1.23-3.93-3.58-6-8,17.57.53,25.47-22.36,17.69-23.76-8.61-1.56-15.39,3.63-15.39,3.63-.49-2-.39-4.26,2.71-9.54l4.82-10.71s-22.22-.47-27.81,13.51-4.19,22.06,5.44,25.32a16.84,16.84,0,0,0,2.77.47c1.29,4.92,4.25,14.11,9,18.08a30.87,30.87,0,0,0-3.34,11.74s4.35,27.5,41.55,27.5a55.52,55.52,0,0,0,14.36-1.84l-.05,0c5.87,5.28,9.09,15.18,3.86,20.55,10,10.89,14.06-11,4.57-23.57h0C568.45,106.77,574,99,574,99a13.7,13.7,0,0,1,14.28,14.17C602,114.4,592.16,92.69,577.81,89.59Z" transform="translate(0 -4.88)" fill="#be1e2d" stroke="#be1e2d" stroke-miterlimit="10" stroke-width="1.4"/><path d="M518.17,135.63c-5.23-5.37-2.81-14,3.05-19.26l-8.42-3C503.31,126,508.14,146.52,518.17,135.63Z" transform="translate(0 -4.88)" fill="#be1e2d" stroke="#be1e2d" stroke-miterlimit="10" stroke-width="1.4"/><path d="M498.35,130.16c-3.78-8.14,1-16.3,8.25-19.33l-7.64-7C486.09,113.1,485.39,137.33,498.35,130.16Z" transform="translate(0 -4.88)" fill="#be1e2d" stroke="#be1e2d" stroke-miterlimit="10" stroke-width="1.4"/><rect x="516.84" y="69.26" width="2.25" height="5.97" rx="0.93" stroke="#000" stroke-miterlimit="10" stroke-width="1.4"/><rect x="552.43" y="69.26" width="2.25" height="5.97" rx="0.93" stroke="#000" stroke-miterlimit="10" stroke-width="1.4"/><path d="M528,81.16a11.64,11.64,0,0,0,16.47.27" transform="translate(0 -4.88)" fill="none" stroke="#000" stroke-linecap="round" stroke-miterlimit="10" stroke-width="3"/></svg>