<svg xmlns="http://www.w3.org/2000/svg" width="6.83in" height="6.83in" viewBox="0 0 491.52 491.52"><title>seahorse2</title><path d="M223,113.13a6.91,6.91,0,1,0,6.91,6.91A6.91,6.91,0,0,0,223,113.13Z" transform="translate(-0.5 -0.98)" fill="#dafffa" fill-rule="evenodd"/><path d="M246.26,1C110.9,1,.5,111.38.5,246.74S110.9,492.5,246.26,492.5,492,382.1,492,246.74,381.62,1,246.26,1ZM360,240.48c-16.43,3.81-27.68,7.16-42.57,15.52a134,134,0,0,0-21.94,15.21,9.76,9.76,0,0,1-5.54,2.34c-5.43.47-13.36-6.25-18.44-9.77-2-1.4-3.57-2.35-6-2.57,3.35,3.05,3.5,3.58,3.19,4.62-5.63,18.82,6.58,35.58,15.48,47.78,2.05,2.82,3.95,5.42,5.24,7.4,6.26,9.54,12.07,20.5,15.37,32.07,3.41,11.95,4.14,24.53,0,36.89a58.22,58.22,0,0,1-23,30.55,53.16,53.16,0,0,1-36.54,8.56,48.82,48.82,0,0,1-28.86-15.47c-18.58-20.52-15.13-48.29,16.79-51.35a20.5,20.5,0,0,1,6.56-.32A18.8,18.8,0,0,1,251,366.72c6.45,5.94,9.24,16.58,3.93,23.9-4.66,8.92-16.22,12-15.83,13.53,1.05,3,26.51-7.23,27.41-27.12.62-13.48-9.32-24.85-25.65-26.48-2-.2-7,.17-6.41.09-5.5-3.92-18.11-13.92-20.81-15.85-25.72-18.39-54-38.57-52.27-80.24.85-21.2,6.14-38.52,13.25-52.44A115.26,115.26,0,0,1,200.08,169a49.35,49.35,0,0,1-13.73-7.84c-3.25,1.54-36.74,20.69-44.54,18.55-2.22-.62-4.39-3-6.41-6-2.41-3.63-8.18-14.56-9.59-18.77a9.52,9.52,0,0,1-.69-4.28,9.76,9.76,0,0,1,9.14-9c1.74-.51,3.17-.88,4.71-1.27,10.71-2.74,26.47-6.77,41.4-25.58,11.7-14.74,19-26.43,37.15-37.54,11.1-6.8,30-14,43.48-13.27a9.75,9.75,0,0,1,9.57,10.43c-1.52,20.29,11.09,23.94,19.86,26.48,4.1,1.18,7.62,2.2,10.22,4.33,6.94,5.69,14.6,21.12,17.27,29,4.55,13.38,4.9,37.41-1.6,59.3-5.45.41-14.62.83-22.29,4.11,14.8,3.45,22.71,2.11,38.24,8.21a129.53,129.53,0,0,1,31.37,17.59A9.68,9.68,0,0,1,360,240.48Z" transform="translate(-0.5 -0.98)" fill="#dafffa" fill-rule="evenodd"/><polygon points="168.38 190.39 168.38 190.39 168.26 190.45 168.38 190.39" fill="#1a1a1a"/><polygon points="171.2 188.99 171.2 188.99 171.19 188.99 171.19 188.99 171.2 188.99" fill="#1a1a1a"/></svg>