<svg xmlns="http://www.w3.org/2000/svg" width="6.83in" height="6.83in" viewBox="0 0 491.52 491.52"><title>shell</title><path d="M246.26,1C110.9,1,.5,111.38.5,246.74S110.9,492.5,246.26,492.5,492,382.1,492,246.74,381.62,1,246.26,1ZM360.11,144.22a36.16,36.16,0,0,1,7.13,2.93,43,43,0,0,1,15.95,15.58,62.8,62.8,0,0,1,8.29,23.54c2.75,18.11-.65,40.67-13.53,64.41-15.19,28-40.79,61.58-64.08,86a234.47,234.47,0,0,1-26.11,24,141.28,141.28,0,0,0,10.47-14.74c12.45-19.82,23.08-42.26,32.23-63.79,10.85-25.54,20.83-52.82,27.33-79.78C362.19,184.09,364,163.31,360.11,144.22ZM101,186.27a62.8,62.8,0,0,1,8.29-23.54,43,43,0,0,1,16-15.58,36.16,36.16,0,0,1,7.13-2.93c-3.92,19.09-2.08,39.87,2.32,58.12,6.5,27,16.48,54.24,27.33,79.78,9.15,21.53,19.78,44,32.23,63.79a139.84,139.84,0,0,0,10.5,14.76,233.9,233.9,0,0,1-26.14-24c-23.29-24.39-48.89-58-64.08-86C101.69,226.94,98.29,204.38,101,186.27ZM398.12,300c-17.93,18.4-44.19,37.82-68.83,52.18-13.23,7.72-26.1,14-37.08,18,5.75,5.34,9.1,11.18,9.1,16.12,0,9.36-8.2,13.82-21.45,15.8-9.31,1.4-21,1.4-33.91,1.4s-24.61,0-33.92-1.4c-13.25-2-21.44-6.44-21.44-15.8,0-5,3.41-10.9,9.26-16.28-10.88-4-23.57-10.23-36.62-17.84C138.59,337.8,112.33,318.38,94.4,300c-13.68-14.06-21.68-29.56-25.17-44.44a73.77,73.77,0,0,1-.3-33.61c3.26-13.83,11.32-26.88,24.28-33.38-2.51,22.67,4,45.86,14.8,65.69,9.46,17.45,21.15,34.36,33.25,50.09a466,466,0,0,0,32,37.47,236.64,236.64,0,0,0,27,24.81l1.87,1.42a56.28,56.28,0,0,1,7.86-5.34c1.44-.81,3-1.59,4.53-2.33a114.36,114.36,0,0,1-13.91-18.42c-10.21-16.26-21.5-38.79-31.68-62.74-11.25-26.49-21.22-54.88-27-78.61-7.8-32.35-4.22-58.33,5-75.34,4.55-8.37,10.5-14.69,17.24-18.69a34.58,34.58,0,0,1,23-4.69,39.66,39.66,0,0,1,17.07,7c-11.22,18.47-14.79,42.84-14.79,63,0,24.79,2.52,50.34,5.94,74.88,2.48,17.8,5.56,35.6,9.42,53.15,3.73,17,8.63,35.59,15.92,51.4.8,1.72,1.71,3.59,2.73,5.5a74.29,74.29,0,0,1,7.44-1.95c-7.09-12.53-13.58-32.83-18.8-56.55C203.43,258.61,197,208.5,197,171.91c0-38.4,12.12-63.38,27.62-74.64a35,35,0,0,1,42.71,0c15.51,11.26,27.62,36.24,27.62,74.64,0,36.59-6.46,86.7-15.19,126.43-5.21,23.72-11.71,44-18.8,56.55a73.58,73.58,0,0,1,7.44,1.95c1-1.91,1.94-3.78,2.73-5.5,7.29-15.81,12.19-34.42,15.92-51.4,3.86-17.55,7-35.35,9.43-53.15,3.41-24.54,5.94-50.09,5.94-74.88,0-20.08-3.54-44.28-14.61-62.72a39.8,39.8,0,0,1,17.51-7.32,34.58,34.58,0,0,1,23,4.69c6.74,4,12.69,10.32,17.24,18.69,9.26,17,12.84,43,5,75.34-5.73,23.73-15.69,52.12-27,78.61-10.18,23.95-21.47,46.48-31.68,62.74a113.88,113.88,0,0,1-14.11,18.62c1.42.68,2.8,1.39,4.11,2.13a57.5,57.5,0,0,1,8.16,5.58l2.21-1.68a237.19,237.19,0,0,0,27-24.79,466,466,0,0,0,32-37.47c12.1-15.73,23.79-32.64,33.25-50.09,10.76-19.83,17.31-43,14.8-65.69,13,6.5,21,19.55,24.28,33.38a73.77,73.77,0,0,1-.3,33.61C419.8,270.42,411.8,285.92,398.12,300Z" transform="translate(-0.5 -0.98)" fill="#dafffa" fill-rule="evenodd"/></svg>