<svg xmlns="http://www.w3.org/2000/svg" width="1.83in" height="1.83in" viewBox="0 0 131.52 131.52"><title>starfish</title><circle cx="65.77" cy="20.52" r="2.08" fill="#fff"/><path d="M51.11,94.21a2.94,2.94,0,1,0,.65,4.11A2.93,2.93,0,0,0,51.11,94.21Z" transform="translate(-2.99 -2.99)" fill="#dafffa"/><path d="M49.78,59.32a4.33,4.33,0,1,0,2.8,5.45A4.32,4.32,0,0,0,49.78,59.32Z" transform="translate(-2.99 -2.99)" fill="#dafffa"/><path d="M43.89,105.14a2.08,2.08,0,1,0,.46,2.91A2.09,2.09,0,0,0,43.89,105.14Z" transform="translate(-2.99 -2.99)" fill="#dafffa"/><circle cx="57.11" cy="85.37" r="4.33" transform="translate(-46.94 64.01) rotate(-45.91)" fill="#dafffa"/><path d="M69.21,38.52a2.95,2.95,0,1,0-2.94-3A2.95,2.95,0,0,0,69.21,38.52Z" transform="translate(-2.99 -2.99)" fill="#dafffa"/><path d="M38.5,57.11a2.94,2.94,0,1,0,1.9,3.7A2.95,2.95,0,0,0,38.5,57.11Z" transform="translate(-2.99 -2.99)" fill="#dafffa"/><circle cx="66.22" cy="62.41" r="7.88" fill="#dafffa"/><path d="M69.19,52.32A4.34,4.34,0,1,0,64.85,48,4.33,4.33,0,0,0,69.19,52.32Z" transform="translate(-2.99 -2.99)" fill="#dafffa"/><path d="M27.37,54.55a2.08,2.08,0,1,0,1.34,2.62A2.09,2.09,0,0,0,27.37,54.55Z" transform="translate(-2.99 -2.99)" fill="#dafffa"/><path d="M111.07,54.54a2.08,2.08,0,1,0,2.59,1.4A2.09,2.09,0,0,0,111.07,54.54Z" transform="translate(-2.99 -2.99)" fill="#dafffa"/><path d="M77.77,82.06a4.33,4.33,0,1,0,6.11.52A4.33,4.33,0,0,0,77.77,82.06Z" transform="translate(-2.99 -2.99)" fill="#dafffa"/><path d="M99.88,57.09a2.94,2.94,0,1,0,3.67,2A2.94,2.94,0,0,0,99.88,57.09Z" transform="translate(-2.99 -2.99)" fill="#dafffa"/><path d="M93.93,62.2A4.34,4.34,0,1,0,91,67.6,4.33,4.33,0,0,0,93.93,62.2Z" transform="translate(-2.99 -2.99)" fill="#dafffa"/><path d="M86,94.34a2.94,2.94,0,1,0,4.15.35A2.95,2.95,0,0,0,86,94.34Z" transform="translate(-2.99 -2.99)" fill="#dafffa"/><path d="M93.92,105.24a2.08,2.08,0,1,0,2.93.25A2.09,2.09,0,0,0,93.92,105.24Z" transform="translate(-2.99 -2.99)" fill="#dafffa"/><path d="M68.76,3a65.77,65.77,0,1,0,65.76,65.76A65.77,65.77,0,0,0,68.76,3ZM122.63,57.5l-21.49,21a4.76,4.76,0,0,0-1.35,4.18l5.06,29.64a4.72,4.72,0,0,1-6.86,5l-26.59-14a4.67,4.67,0,0,0-4.39,0l-26.59,14a4.71,4.71,0,0,1-6.85-5l5.08-29.64a4.77,4.77,0,0,0-1.38-4.18l-21.51-21a4.74,4.74,0,0,1,2.64-8.1l29.72-4.31a4.75,4.75,0,0,0,3.56-2.58L65,15.59a4.71,4.71,0,0,1,8.46,0L86.73,42.58a4.78,4.78,0,0,0,3.57,2.58L120,49.43a4.73,4.73,0,0,1,2.61,8.07Z" transform="translate(-2.99 -2.99)" fill="#dafffa"/></svg>