<?xml version="1.0" encoding="utf-8"?>
<!-- Generator: Adobe Illustrator 23.1.1, SVG Export Plug-In . SVG Version: 6.00 Build 0)  -->
<svg version="1.1" id="Layer_1" xmlns="http://www.w3.org/2000/svg" xmlns:xlink="http://www.w3.org/1999/xlink" x="0px" y="0px"
	 viewBox="0 0 137.5 137.5" style="enable-background:new 0 0 137.5 137.5;" xml:space="preserve">
<style type="text/css">
	.st0{fill:#FFFFFF;}
	.st1{fill:#DAFFFA;}
</style>
<title>star2</title>
<circle class="st0" cx="68.8" cy="23.5" r="2.1"/>
<g>
	<path class="st1" d="M51.1,94.2c-1.3-1-3.2-0.7-4.1,0.7c-1,1.3-0.7,3.2,0.7,4.1c1.3,1,3.2,0.7,4.1-0.7S52.4,95.2,51.1,94.2z"/>
	<path class="st1" d="M49.8,59.3c-2.3-0.7-4.7,0.5-5.5,2.8c-0.7,2.3,0.5,4.7,2.8,5.5c2.3,0.7,4.7-0.5,5.5-2.8
		C53.3,62.5,52.1,60.1,49.8,59.3z"/>
	<path class="st1" d="M43.9,105.1c-0.9-0.7-2.2-0.5-2.9,0.5c-0.7,0.9-0.5,2.2,0.5,2.9c0.9,0.7,2.2,0.5,2.9-0.5
		S44.8,105.8,43.9,105.1z"/>
	<ellipse transform="matrix(0.6957 -0.7183 0.7183 0.6957 -43.9434 66.9999)" class="st1" cx="57.1" cy="85.4" rx="4.3" ry="4.3"/>
	<path class="st1" d="M69.2,38.5c1.6,0,2.9-1.3,2.9-2.9s-1.3-2.9-2.9-2.9s-2.9,1.3-2.9,2.9S67.6,38.5,69.2,38.5z"/>
	<path class="st1" d="M38.5,57.1c-1.5-0.5-3.2,0.3-3.7,1.9c-0.5,1.5,0.3,3.2,1.9,3.7c1.5,0.5,3.2-0.3,3.7-1.9
		C40.9,59.3,40,57.6,38.5,57.1z"/>
	<circle class="st1" cx="69.2" cy="65.4" r="7.9"/>
	<path class="st1" d="M69.2,52.3c2.4,0,4.3-1.9,4.3-4.3c0-2.4-1.9-4.3-4.3-4.3c-2.4,0-4.3,1.9-4.3,4.3
		C64.9,50.4,66.8,52.3,69.2,52.3z"/>
	<path class="st1" d="M27.4,54.6c-1.1-0.4-2.3,0.2-2.6,1.3c-0.4,1.1,0.2,2.3,1.3,2.6c1.1,0.4,2.3-0.2,2.6-1.3
		C29.1,56.1,28.5,54.9,27.4,54.6z"/>
	<path class="st1" d="M111.1,54.5c-1.1,0.3-1.7,1.5-1.4,2.6s1.5,1.7,2.6,1.4c1.1-0.3,1.7-1.5,1.4-2.6S112.2,54.2,111.1,54.5z"/>
	<path class="st1" d="M77.8,82.1c-1.8,1.5-2.1,4.3-0.5,6.1c1.5,1.8,4.3,2.1,6.1,0.5c1.8-1.5,2.1-4.3,0.5-6.1
		C82.3,80.7,79.6,80.5,77.8,82.1z"/>
	<path class="st1" d="M99.9,57.1c-1.6,0.5-2.4,2.1-2,3.7c0.5,1.6,2.1,2.4,3.7,2c1.6-0.5,2.4-2.1,2-3.7
		C103.1,57.5,101.4,56.6,99.9,57.1z"/>
	<path class="st1" d="M93.9,62.2c-0.7-2.3-3.1-3.6-5.4-2.9c-2.3,0.7-3.6,3.1-2.9,5.4c0.7,2.3,3.1,3.6,5.4,2.9
		C93.3,66.9,94.6,64.5,93.9,62.2z"/>
	<path class="st1" d="M86,94.3c-1.2,1-1.4,2.9-0.4,4.2c1,1.2,2.9,1.4,4.2,0.4c1.2-1,1.4-2.9,0.4-4.2C89.1,93.4,87.3,93.3,86,94.3z"
		/>
	<path class="st1" d="M93.9,105.2c-0.9,0.7-1,2.1-0.2,2.9c0.7,0.9,2.1,1,2.9,0.2c0.9-0.7,1-2.1,0.2-2.9S94.8,104.5,93.9,105.2z"/>
	<path class="st1" d="M68.8,3C32.4,3,3,32.4,3,68.8c0,36.3,29.4,65.8,65.8,65.8s65.8-29.4,65.8-65.8C134.5,32.4,105.1,3,68.8,3z
		 M122.6,57.5l-21.5,21c-1.1,1.1-1.6,2.6-1.4,4.2l5.1,29.6c0.5,2.6-1.3,5-3.8,5.5c-1,0.2-2.1,0-3-0.5l-26.6-14c-1.4-0.7-3-0.7-4.4,0
		l-26.6,14c-2.3,1.2-5.2,0.3-6.4-2c-0.5-0.9-0.7-2-0.5-3l5.1-29.6c0.3-1.5-0.3-3.1-1.4-4.2l-21.5-21c-1.9-1.8-1.9-4.8-0.1-6.7
		c0.7-0.8,1.7-1.3,2.8-1.4l29.7-4.3c1.5-0.2,2.9-1.2,3.6-2.6L65,15.6c1.2-2.3,4-3.3,6.3-2.1c0.9,0.5,1.7,1.2,2.2,2.2l13.3,26.9
		c0.7,1.4,2,2.4,3.6,2.6l29.7,4.3c2.6,0.4,4.4,2.8,4,5.4C123.9,55.8,123.4,56.8,122.6,57.5z"/>
</g>
</svg>
