<svg xmlns="http://www.w3.org/2000/svg" width="6.83in" height="6.83in" viewBox="0 0 491.52 491.52"><title>turtle</title><path d="M154,255.39a18.37,18.37,0,0,0,15.93-9.7l17.66-31.33a22,22,0,0,0,0-21.44l-17.66-31.33a18.48,18.48,0,0,0-14.58-9.66c-26.19,25.32-43.19,61.72-44.62,102.42a16.17,16.17,0,0,0,5.8,1Z" transform="translate(-0.5 -0.98)" fill="#dafffa" fill-rule="evenodd"/><path d="M211.45,184.44a18.39,18.39,0,0,0,15.93,9.71H264.9a18.31,18.31,0,0,0,15.88-9.71l17.66-31.33a22,22,0,0,0,0-21.44l-.39-.71a121.66,121.66,0,0,0-103.86,0l-.39.71a22.2,22.2,0,0,0,0,21.44Z" transform="translate(-0.5 -0.98)" fill="#dafffa" fill-rule="evenodd"/><path d="M191.11,314.22l-17.65-31.33a18.43,18.43,0,0,0-15.93-9.75H120.05a17.29,17.29,0,0,0-5.58.94c2.68,41,21.08,77.24,48.6,101.67A19.06,19.06,0,0,0,173.46,367l17.65-31.33A21.94,21.94,0,0,0,191.11,314.22Z" transform="translate(-0.5 -0.98)" fill="#dafffa" fill-rule="evenodd"/><path d="M222.71,209.48a20,20,0,0,0-17,9.89l-19.6,31.81a24.07,24.07,0,0,0,0,25L205.74,308a20.08,20.08,0,0,0,17,9.84h45a20.08,20.08,0,0,0,17-9.84l19.61-31.81a24.11,24.11,0,0,0,0-25l-19.61-31.81a20,20,0,0,0-17-9.89Z" transform="translate(-0.5 -0.98)" fill="#dafffa" fill-rule="evenodd"/><path d="M282.86,343A18.31,18.31,0,0,0,267,333.2H229.46A18.42,18.42,0,0,0,213.53,343l-17.66,31.33a22.14,22.14,0,0,0-.17,21.11,121.49,121.49,0,0,0,104,1.84l.87-1.51a22.2,22.2,0,0,0,0-21.44Z" transform="translate(-0.5 -0.98)" fill="#dafffa" fill-rule="evenodd"/><path d="M246.26,1C110.9,1,.5,111.38.5,246.74S110.9,492.5,246.26,492.5,492,382.1,492,246.74,381.62,1,246.26,1Zm161,263.54A194.86,194.86,0,0,1,393,338a66.84,66.84,0,0,1,6.48,5.65c20.37,20.37,24.17,49.61,8.47,65.3-14.69,14.7-41.27,12.3-61.31-4.79-22.06,19.56-48.84,32.83-78.16,37.36,0,.58.07,1.16.07,1.76,0,15.6-9.68,28.24-21.61,28.24s-21.61-12.64-21.61-28.24c0-.51,0-1,0-1.51-29.27-4.16-56.08-17-78.26-36.16-20.23,18.43-47.87,21.43-63,6.32-15.69-15.69-11.9-44.93,8.48-65.3a67.58,67.58,0,0,1,7.4-6.38,197.05,197.05,0,0,1-2.45-145.52c-1.39-1.18-2.74-2.42-4.06-3.74-20.37-20.37-24.17-49.61-8.47-65.3,13.77-13.78,38-12.53,57.48,1.76a157,157,0,0,1,55.35-33.65c-.26-2.66-.44-5.36-.44-8.12,0-35.51,22.17-64.28,49.52-64.28s49.51,28.77,49.51,64.28a81.63,81.63,0,0,1-.52,8.77,157.6,157.6,0,0,1,56.2,35.45c19.36-13.77,43.12-14.83,56.72-1.23,15.69,15.69,11.9,44.93-8.48,65.3-1.49,1.49-3,2.87-4.61,4.18A195.48,195.48,0,0,1,407.27,264.52Z" transform="translate(-0.5 -0.98)" fill="#dafffa" fill-rule="evenodd"/><path d="M338.21,273.14a18.41,18.41,0,0,0-15.92,9.75l-17.66,31.33a22,22,0,0,0,0,21.44L322.29,367a18.82,18.82,0,0,0,8,7.76c27.05-24.56,45-60.72,47.48-101.47a16.77,16.77,0,0,0-2.12-.14Z" transform="translate(-0.5 -0.98)" fill="#dafffa" fill-rule="evenodd"/><path d="M336.83,151.84h-3.77a18.43,18.43,0,0,0-15.93,9.75l-17.65,31.33a22.2,22.2,0,0,0,0,21.44l17.65,31.33a18.38,18.38,0,0,0,15.93,9.7h37.52a17.57,17.57,0,0,0,10.82-3.78C379.32,212,362.49,176.54,336.83,151.84Z" transform="translate(-0.5 -0.98)" fill="#dafffa" fill-rule="evenodd"/></svg>